<svg xmlns="http://www.w3.org/2000/svg" xmlns:xlink="http://www.w3.org/1999/xlink" width="500" zoomAndPan="magnify" viewBox="0 0 375 374.999991" height="500" preserveAspectRatio="xMidYMid meet" version="1.0"><defs><clipPath id="93844c66a9"><path d="M 29.066406 295 L 68 295 L 68 331 L 29.066406 331 Z M 29.066406 295 " clip-rule="nonzero"/></clipPath><clipPath id="6c2ece3f47"><path d="M 79 48 L 345.566406 48 L 345.566406 283 L 79 283 Z M 79 48 " clip-rule="nonzero"/></clipPath></defs><path fill="#ffffff" d="M 141.699219 35.722656 C 141.40625 37.902344 138.675781 37.273438 137.503906 37.527344 C 126.328125 39.921875 116.179688 43.746094 107.25 48.636719 C 99.597656 52.824219 94.039062 59.132812 87.480469 64.246094 C 86.902344 65.449219 85.960938 66.585938 85.085938 67.550781 C 84.339844 68.371094 83.449219 69.910156 81.789062 69.652344 C 80.667969 67.976562 82.398438 66.527344 83.289062 65.449219 C 86.46875 61.582031 90.667969 58.199219 94.671875 54.640625 C 96.835938 52.714844 98.882812 51.011719 101.558594 49.234375 C 107.085938 45.574219 114.089844 42.121094 121.03125 39.328125 C 124.859375 37.789062 129.558594 36.734375 134.507812 35.722656 C 136.855469 35.25 140.164062 33.191406 141.699219 35.722656 " fill-opacity="1" fill-rule="evenodd"/><path fill="#ffffff" d="M 85.683594 52.539062 C 85.699219 55.066406 83.105469 55.796875 81.789062 57.339844 C 79.011719 60.605469 77.042969 64.757812 73.699219 67.550781 C 72.027344 70.378906 70.945312 73.789062 69.210938 76.558594 C 69.09375 77.558594 68.0625 79.191406 67.113281 78.359375 C 65 77.1875 67.441406 75.371094 68.011719 74.15625 C 69.148438 71.722656 70.042969 68.414062 71.308594 66.347656 C 75.570312 63.117188 78.882812 55.199219 83.589844 52.238281 C 83.800781 52.105469 84.984375 52.121094 85.683594 52.539062 " fill-opacity="1" fill-rule="evenodd"/><path fill="#ffffff" d="M 112.941406 52.539062 C 113.644531 54.511719 111.464844 54.625 110.546875 55.238281 C 107.679688 57.160156 104.441406 59.324219 101.261719 61.246094 C 95.210938 67.097656 89.777344 74.042969 84.785156 81.359375 C 83.800781 82.804688 82.972656 84.882812 81.191406 85.5625 C 79.292969 83.875 81.355469 81.679688 82.386719 80.160156 C 83.476562 78.566406 84.589844 76.691406 85.683594 75.355469 C 90.886719 68.996094 95.496094 62.574219 102.15625 57.640625 C 104.160156 56.160156 106.1875 54.808594 108.746094 53.4375 C 110.058594 52.738281 111.496094 51.609375 112.941406 52.539062 " fill-opacity="1" fill-rule="evenodd"/><path fill="#ffffff" d="M 126.417969 75.054688 C 120.921875 77.726562 112.800781 84.316406 114.4375 92.769531 C 118.804688 94.023438 119.984375 92.011719 121.929688 89.46875 C 124.199219 86.488281 125.882812 84.222656 127.621094 81.058594 C 128.570312 79.328125 129.464844 77.453125 129.117188 75.65625 C 128.386719 75.425781 126.902344 74.820312 126.417969 75.054688 Z M 133.609375 73.554688 C 134.621094 83.265625 128.019531 87.703125 124.625 93.96875 C 122.589844 94.910156 121.925781 96.855469 119.53125 97.574219 C 115.566406 98.757812 110.554688 97.132812 109.648438 93.96875 C 108.683594 90.605469 109.808594 85.125 111.445312 82.261719 C 113.953125 77.875 120.164062 73.636719 124.324219 70.851562 C 126.835938 69.171875 131.546875 71.3125 133.609375 73.554688 " fill-opacity="1" fill-rule="evenodd"/><path fill="#ffffff" d="M 288.46875 109.882812 C 289.246094 110.207031 289.9375 110.613281 291.167969 110.484375 C 291.628906 110.046875 291.429688 108.945312 291.464844 108.082031 C 290.777344 107.945312 289.351562 107.019531 288.769531 107.78125 C 289.550781 108.199219 288.550781 109.335938 288.46875 109.882812 Z M 286.375 108.980469 C 286.304688 107.847656 286.675781 106.273438 285.472656 106.28125 C 285.402344 107.550781 285.496094 108.65625 286.375 108.980469 Z M 293.859375 107.179688 C 293.984375 108.460938 293.570312 110.273438 294.164062 111.082031 C 298.136719 110.636719 300.828125 112.261719 303.445312 110.785156 C 303.152344 109.074219 304.09375 106.128906 302.847656 105.378906 C 300.292969 106.417969 297.414062 107.136719 293.859375 107.179688 Z M 306.441406 109.582031 C 306.085938 107.9375 307.179688 104.839844 305.839844 104.179688 C 306.199219 105.824219 305.101562 108.921875 306.441406 109.582031 Z M 297.757812 84.363281 C 291.914062 84.964844 286.28125 87.78125 285.171875 91.570312 C 284.617188 93.476562 284.640625 97.386719 285.171875 98.171875 C 286.40625 99.988281 287.769531 102.144531 289.667969 102.679688 C 295.640625 104.351562 307.910156 99.734375 309.734375 94.269531 C 310.410156 92.246094 309.875 90.371094 309.734375 88.566406 C 307.371094 84.644531 303.648438 83.757812 297.757812 84.363281 Z M 316.625 90.367188 C 316.972656 96.101562 316.53125 100.503906 315.128906 104.78125 C 313.230469 110.5625 312.046875 112.460938 306.144531 114.6875 C 302.375 116.105469 301.542969 115.980469 297.15625 115.585938 C 294.59375 115.359375 291.691406 115.621094 289.96875 115.289062 C 287.027344 114.71875 280.574219 112.171875 278.882812 109.882812 C 276.949219 107.269531 276.296875 102.707031 276.488281 99.675781 C 276.71875 95.992188 278.289062 92.765625 280.082031 90.367188 C 281.539062 88.421875 283.546875 85.191406 285.472656 83.761719 C 289.03125 81.125 294.886719 79.570312 299.851562 79.257812 C 308.097656 78.742188 312.949219 83.558594 316.625 90.367188 " fill-opacity="1" fill-rule="evenodd"/><path fill="#ffffff" d="M 140.796875 101.773438 C 140.421875 104.316406 138.570312 106.328125 137.203125 108.382812 C 134.5 112.453125 132.605469 116.910156 130.015625 121.59375 C 128.972656 123.480469 128.078125 126.503906 125.519531 126.996094 C 124.207031 124.6875 126.570312 122.558594 127.621094 120.691406 C 131.144531 114.40625 134.175781 107.023438 138.703125 101.476562 C 139.496094 101.476562 140.414062 101.363281 140.796875 101.773438 " fill-opacity="1" fill-rule="evenodd"/><path fill="#ffffff" d="M 142.59375 111.984375 C 142.375 114.375 140.355469 114.898438 139 116.488281 C 135.035156 121.144531 132.347656 126.761719 129.117188 132.402344 C 128.257812 133.902344 127.121094 136.402344 124.921875 136.003906 C 124 133.914062 126.460938 131.851562 127.617188 129.699219 C 131.105469 123.226562 135.332031 115.917969 140.796875 111.386719 C 141.832031 111.148438 142.0625 111.71875 142.59375 111.984375 " fill-opacity="1" fill-rule="evenodd"/><path fill="#ffffff" d="M 142.894531 120.390625 C 143.183594 122.582031 141.519531 122.816406 140.5 123.695312 C 136.917969 128.695312 132.925781 133.941406 128.816406 139.007812 C 127.761719 140.304688 126.527344 143.402344 124.023438 142.308594 C 124.160156 140.144531 126.082031 138.242188 127.621094 136.304688 C 130.210938 133.03125 132.945312 129.339844 135.707031 125.796875 C 137.472656 123.527344 139.675781 119.34375 142.894531 120.390625 " fill-opacity="1" fill-rule="evenodd"/><path fill="#ffffff" d="M 274.390625 122.492188 C 274.582031 124.644531 272.253906 125.582031 271.09375 126.695312 C 268.644531 129.054688 266.570312 131.347656 264.203125 134.203125 C 263.242188 135.363281 262.585938 137.894531 260.3125 137.503906 C 259.621094 134.363281 263.097656 132.0625 265.105469 129.699219 C 267.597656 126.761719 269.957031 123.9375 272.890625 121.890625 C 273.847656 121.636719 273.816406 122.363281 274.390625 122.492188 " fill-opacity="1" fill-rule="evenodd"/><path fill="#ffffff" d="M 144.09375 126.695312 C 143.789062 129.152344 141.617188 130.703125 140.199219 132.402344 C 136.644531 136.65625 133.871094 141.851562 130.015625 146.210938 C 129.394531 146.910156 128.570312 148.285156 127.320312 148.011719 C 125.671875 145.863281 128.4375 143.941406 129.714844 142.308594 C 131.023438 140.636719 132.359375 138.648438 133.609375 136.902344 C 136.433594 132.960938 139.59375 128.699219 142.597656 126.097656 C 143.34375 126.046875 143.523438 126.566406 144.09375 126.695312 " fill-opacity="1" fill-rule="evenodd"/><path fill="#ffffff" d="M 145.890625 133 C 145.636719 135.441406 143.398438 136.789062 141.996094 138.402344 C 137.890625 143.140625 134.546875 149.027344 129.714844 153.414062 C 126.664062 152.09375 129.816406 149.578125 130.914062 148.3125 C 135.1875 143.375 139.722656 136.878906 144.09375 132.402344 C 145.128906 132.164062 145.359375 132.734375 145.890625 133 " fill-opacity="1" fill-rule="evenodd"/><path fill="#ffffff" d="M 262.109375 151.011719 C 261.394531 153.675781 262.648438 156.550781 263.308594 157.320312 C 265.890625 160.320312 274.242188 159.800781 275.890625 155.519531 C 277.105469 152.347656 275.597656 149.324219 272.292969 147.113281 C 267.253906 146.640625 262.914062 148.023438 262.109375 151.011719 Z M 264.207031 163.324219 C 259.21875 161.417969 257.007812 156.730469 257.316406 149.515625 C 259.832031 144.363281 267.273438 140.707031 273.492188 142.609375 C 277.746094 143.910156 282.957031 150.773438 280.082031 157.617188 C 278.09375 162.347656 270.75 164.546875 264.207031 163.324219 " fill-opacity="1" fill-rule="evenodd"/><path fill="#ffffff" d="M 107.550781 189.746094 C 106.804688 190.75 105.921875 191.910156 106.050781 193.050781 C 108.734375 189.832031 111.785156 186.988281 114.4375 183.742188 C 114.507812 183.363281 114.90625 183.125 114.140625 183.136719 C 111.917969 185.269531 109.296875 187.390625 107.550781 189.746094 Z M 146.191406 265.703125 C 150.199219 266.035156 154.480469 267.0625 159.667969 266.304688 C 163.621094 265.726562 167.261719 262.914062 170.449219 260.597656 C 177.480469 255.492188 182.382812 249.710938 183.332031 238.679688 C 184.417969 226.101562 184.214844 210.707031 179.738281 201.757812 C 178.832031 199.9375 176.660156 197.816406 174.945312 195.449219 C 172.789062 192.476562 171.019531 189.730469 168.953125 187.644531 C 164.917969 183.574219 158.898438 180.429688 153.082031 178.335938 C 151.132812 177.636719 149.179688 176.949219 147.386719 176.535156 C 142.347656 175.367188 136.589844 176.78125 130.613281 176.234375 C 126.582031 178.195312 121.585938 179.195312 117.433594 181.039062 C 117.011719 181.648438 118.308594 182.875 117.433594 184.039062 C 115.050781 186.757812 112.777344 189.648438 109.945312 192.746094 C 107.378906 195.558594 103.640625 197.972656 102.457031 201.453125 C 101.921875 203.023438 101.839844 205.328125 101.558594 207.457031 C 100.859375 212.792969 100.136719 217.960938 100.660156 224.269531 C 101.589844 235.503906 106.117188 248.273438 112.34375 255.195312 C 114.804688 257.933594 117.210938 259.214844 120.429688 260.597656 C 123.511719 261.929688 127.3125 263.421875 130.914062 263.902344 C 137.59375 259.820312 143.03125 253.742188 148.882812 248.289062 C 153.382812 244.101562 157.300781 239.863281 161.167969 235.378906 C 162.132812 234.257812 163.890625 231.40625 165.960938 232.679688 C 165.972656 234.761719 164.117188 236.128906 162.964844 237.480469 C 159.210938 241.898438 155.324219 245.585938 151.28125 249.492188 C 147.28125 253.355469 143.257812 257.398438 139.300781 260.902344 C 137.878906 262.160156 136.1875 263.199219 135.105469 264.804688 C 139.511719 265.398438 142.753906 265.417969 146.191406 265.703125 Z M 130.316406 171.730469 C 134.28125 171.621094 140.957031 170.859375 145.890625 171.429688 C 147.933594 171.667969 150.167969 172.753906 152.480469 173.535156 C 158.785156 175.648438 165.328125 178.261719 169.855469 181.9375 C 172.820312 184.347656 175.0625 187.660156 177.339844 190.945312 C 179.773438 194.457031 182.832031 197.511719 184.230469 200.550781 C 187.636719 207.957031 189.273438 221.226562 188.125 233.277344 C 187.453125 240.34375 187.453125 245.277344 185.429688 250.390625 C 184.59375 252.496094 183.121094 254.972656 181.835938 256.695312 C 180.570312 258.390625 178.714844 259.460938 177.042969 260.902344 C 172.777344 264.5625 166.105469 270.277344 159.667969 271.105469 C 155.632812 271.628906 151.234375 270.71875 146.789062 270.507812 C 138.707031 270.121094 130.464844 268.992188 123.722656 266.902344 C 111.203125 263.03125 105.410156 255.421875 100.359375 243.484375 C 97.1875 235.992188 95.5625 224.414062 96.167969 213.464844 C 96.273438 211.558594 96.8125 209.492188 97.066406 207.457031 C 97.972656 200.125 98.878906 195.386719 102.457031 189.445312 C 105.75 183.976562 110.355469 179.371094 116.238281 176.535156 C 120.183594 174.628906 124.855469 174.058594 129.714844 171.730469 C 129.917969 171.730469 130.113281 171.730469 130.316406 171.730469 " fill-opacity="1" fill-rule="evenodd"/><path fill="#ffffff" d="M 227.664062 193.347656 C 225.5 193.703125 225.902344 191.144531 225.566406 190.046875 C 224.402344 186.21875 222.605469 182.292969 221.074219 178.9375 C 223.152344 174.976562 225.304688 181.980469 226.460938 184.941406 C 227.773438 188.277344 229.339844 191.890625 227.664062 193.347656 " fill-opacity="1" fill-rule="evenodd"/><path fill="#ffffff" d="M 139 179.535156 C 139.691406 181.839844 137.046875 183.597656 135.707031 184.941406 C 126.886719 193.78125 117.210938 202.878906 108.148438 211.960938 C 106.835938 213.277344 105.273438 215.585938 103.054688 215.265625 C 102.34375 213.007812 104.808594 211.40625 106.050781 210.160156 C 114.398438 201.792969 123.382812 193.203125 132.113281 184.640625 C 133.605469 183.175781 134.871094 181.402344 136.304688 180.4375 C 137.023438 179.953125 137.578125 179.191406 139 179.535156 " fill-opacity="1" fill-rule="evenodd"/><path fill="#ffffff" d="M 128.21875 181.335938 C 127.042969 184.15625 124.195312 186.132812 121.929688 188.242188 C 116.300781 193.484375 111.292969 199.34375 106.050781 205.359375 C 105.117188 206.429688 104.074219 208.5 102.15625 208.058594 C 101.738281 204.878906 104.867188 202.71875 106.652344 200.550781 C 112.34375 193.648438 119.542969 186.914062 126.121094 180.738281 C 127.214844 180.542969 127.714844 180.941406 128.21875 181.335938 " fill-opacity="1" fill-rule="evenodd"/><path fill="#ffffff" d="M 274.691406 188.242188 C 273.304688 183.925781 263.960938 188.460938 266.902344 193.050781 C 268.636719 193.414062 272.125 193.125 273.792969 192.445312 C 274.316406 191.113281 275.203125 189.847656 274.691406 188.242188 Z M 270.496094 182.238281 C 275.859375 181.433594 279.460938 184.390625 279.484375 189.445312 C 279.492188 192.382812 277.183594 196.484375 274.394531 197.25 C 268.109375 198.972656 262.605469 198.085938 261.8125 192.746094 C 260.917969 186.75 265.695312 182.957031 270.496094 182.238281 " fill-opacity="1" fill-rule="evenodd"/><path fill="#ffffff" d="M 144.691406 182.238281 C 145.726562 182 145.957031 182.574219 146.488281 182.839844 C 146.601562 184.277344 145.265625 185.171875 144.390625 186.140625 C 133.566406 198.15625 121.277344 209.914062 109.648438 221.570312 C 108.058594 223.164062 106.566406 226.3125 103.65625 225.773438 C 103.394531 223.066406 106.273438 221.648438 107.851562 220.066406 C 112.886719 215.015625 118.191406 209.703125 123.425781 204.457031 C 130.730469 197.132812 137.554688 189.414062 144.691406 182.238281 " fill-opacity="1" fill-rule="evenodd"/><path fill="#ffffff" d="M 224.070312 195.449219 C 222.476562 195.476562 222.558594 193.675781 221.972656 192.746094 C 220.328125 190.140625 217.816406 187.453125 216.578125 184.039062 C 216.578125 183.742188 216.578125 183.441406 216.578125 183.136719 C 219.140625 181.601562 220.824219 186.742188 222.273438 188.84375 C 223.855469 191.140625 226.324219 193.84375 224.070312 195.449219 " fill-opacity="1" fill-rule="evenodd"/><path fill="#ffffff" d="M 213.585938 186.742188 C 215.585938 187.140625 216.882812 189.421875 217.777344 190.945312 C 218.820312 192.722656 219.640625 194.863281 220.175781 196.949219 C 222.953125 198.671875 224.246094 203.589844 225.269531 208.957031 C 225.988281 212.761719 226.535156 216.960938 226.765625 220.371094 C 226.855469 221.695312 226.894531 223.746094 226.765625 225.171875 C 226.660156 226.304688 227.386719 228.578125 225.269531 228.476562 C 223.59375 227.34375 224.453125 224.195312 224.367188 222.472656 C 224.046875 216.003906 222.917969 208.757812 221.074219 203.257812 C 220.457031 201.425781 219.535156 199.828125 219.273438 198.152344 C 219.003906 197.625 218.226562 197.601562 217.777344 197.25 C 216.691406 193.535156 214.296875 191.132812 212.683594 187.945312 C 212.648438 187.40625 213.054688 187.308594 212.984375 186.742188 C 213.183594 186.742188 213.386719 186.742188 213.585938 186.742188 " fill-opacity="1" fill-rule="evenodd"/><path fill="#ffffff" d="M 216.578125 203.554688 C 216.234375 203.507812 216.046875 203.621094 215.980469 203.855469 C 214.03125 203.691406 213.835938 200.90625 212.984375 199.050781 C 212.027344 196.957031 210.050781 195.058594 210.890625 192.746094 C 213.097656 192.363281 214.121094 195.488281 215.085938 197.550781 C 216.054688 199.632812 217.285156 202.03125 216.578125 203.554688 " fill-opacity="1" fill-rule="evenodd"/><path fill="#ffffff" d="M 226.765625 193.648438 C 228.984375 194.609375 228.855469 198.023438 229.460938 200.855469 C 230.425781 205.386719 231.019531 209.21875 230.957031 215.265625 C 230.941406 216.808594 231.714844 219.554688 229.757812 220.066406 C 227.636719 219.804688 228.582031 217.53125 228.5625 216.464844 C 228.46875 211.667969 228.230469 207.136719 227.363281 202.652344 C 226.632812 198.863281 225.109375 195.730469 226.164062 193.648438 C 226.363281 193.648438 226.5625 193.648438 226.765625 193.648438 " fill-opacity="1" fill-rule="evenodd"/><path fill="#ffffff" d="M 208.492188 197.25 C 210.492188 196.785156 211.429688 199.5625 212.085938 201.152344 C 212.765625 202.800781 213.992188 205.507812 212.085938 206.257812 C 210.601562 205.84375 210.035156 203.5625 209.390625 202.054688 C 208.734375 200.511719 207.476562 198.558594 208.492188 197.25 " fill-opacity="1" fill-rule="evenodd"/><path fill="#ffffff" d="M 207.59375 201.453125 C 208.390625 203.492188 210.824219 205.375 209.988281 208.058594 C 206.796875 207.960938 206.886719 204.566406 205.496094 202.652344 C 205.507812 201.5625 206.378906 201.335938 207.59375 201.453125 " fill-opacity="1" fill-rule="evenodd"/><path fill="#ffffff" d="M 175.246094 203.554688 C 175.9375 203.460938 176.394531 203.605469 176.742188 203.855469 C 176.605469 206.65625 173.894531 208.3125 172.25 210.160156 C 167.449219 215.550781 162.089844 221.363281 156.675781 226.375 C 151.054688 231.570312 146.347656 236.738281 141.097656 242.585938 C 139.6875 244.15625 137.929688 247.332031 135.105469 246.492188 C 134.734375 245.078125 136.164062 244.035156 136.90625 243.1875 C 142.234375 237.078125 148.230469 230.625 154.277344 224.871094 C 161.503906 217.996094 168.246094 210.683594 175.246094 203.554688 " fill-opacity="1" fill-rule="evenodd"/><path fill="#ffffff" d="M 215.980469 205.957031 C 219.71875 207.222656 220.195312 213.089844 220.472656 218.566406 C 220.644531 221.871094 220.378906 225.503906 220.472656 228.476562 C 220.53125 230.226562 221.503906 232.148438 219.875 233.277344 C 217.164062 233.667969 218.160156 230.800781 218.078125 229.375 C 217.765625 223.976562 218.398438 215.578125 216.878906 210.761719 C 216.382812 209.1875 215.207031 208.308594 215.085938 206.859375 C 215.085938 206.660156 215.085938 206.457031 215.085938 206.257812 C 215.324219 206.097656 215.566406 205.945312 215.980469 205.957031 " fill-opacity="1" fill-rule="evenodd"/><path fill="#ffffff" d="M 163.265625 208.957031 C 163.164062 211.175781 161.070312 212.582031 159.667969 214.0625 C 151.640625 222.542969 144.464844 232.605469 136.007812 241.085938 C 134.84375 242.246094 133.503906 245.035156 131.214844 244.085938 C 130.765625 242.011719 133.003906 240.511719 134.207031 239.285156 C 140.773438 232.570312 146.835938 224.675781 153.378906 217.367188 C 156.335938 214.066406 158.453125 210.582031 162.066406 208.359375 C 162.507812 208.515625 162.820312 208.800781 163.265625 208.957031 " fill-opacity="1" fill-rule="evenodd"/><path fill="#ffffff" d="M 212.085938 235.980469 C 212.449219 227.445312 211.621094 217.953125 209.988281 210.460938 C 210.4375 210.464844 211.214844 209.347656 211.488281 210.160156 C 212.855469 211.242188 213.460938 214.222656 213.886719 217.066406 C 214.578125 221.710938 215.300781 226.558594 214.785156 232.078125 C 214.625 233.765625 214.65625 236.410156 212.085938 235.980469 " fill-opacity="1" fill-rule="evenodd"/><path fill="#ffffff" d="M 206.996094 210.460938 C 208.101562 211.023438 208.25 213.144531 208.492188 214.664062 C 209.121094 218.625 209.199219 224.402344 209.089844 229.675781 C 209.03125 232.730469 209.582031 236.546875 207.296875 237.785156 C 204.878906 236.8125 206.558594 233.546875 206.695312 231.175781 C 207.082031 224.519531 206.066406 216.675781 205.496094 210.761719 C 205.945312 210.765625 206.722656 209.644531 206.996094 210.460938 " fill-opacity="1" fill-rule="evenodd"/><path fill="#ffffff" d="M 273.191406 217.96875 C 274.4375 217.777344 276.945312 217.886719 278.582031 219.167969 C 280.707031 220.828125 282.796875 225.503906 282.476562 228.175781 C 282.207031 230.4375 279.554688 232.5625 277.085938 233.578125 C 274.789062 234.527344 271.25 235.632812 268.699219 234.78125 C 265.273438 233.632812 263.792969 229.039062 264.203125 225.773438 C 264.796875 221.125 268.695312 218.648438 273.191406 217.96875 " fill-opacity="1" fill-rule="evenodd"/><path fill="#ffffff" d="M 127.320312 219.769531 C 126.566406 222.292969 124.035156 224.144531 122.226562 226.074219 C 118.277344 230.292969 114.496094 234.421875 110.246094 238.679688 C 109.070312 239.863281 107.589844 242.070312 105.453125 241.386719 C 104.628906 239.261719 107.289062 237.722656 108.449219 236.582031 C 113.984375 231.140625 119.738281 224.972656 125.222656 219.167969 C 126.316406 218.972656 126.816406 219.371094 127.320312 219.769531 " fill-opacity="1" fill-rule="evenodd"/><path fill="#ffffff" d="M 169.554688 220.667969 C 169.960938 223.261719 167.539062 225.144531 165.960938 226.671875 C 156.113281 236.214844 146.5 246.777344 136.605469 256.695312 C 135.136719 258.164062 133.609375 261.085938 130.914062 260.300781 C 130.847656 257.667969 133.558594 256.445312 135.105469 254.894531 C 142.746094 247.238281 150.535156 239.035156 158.171875 230.875 C 161.472656 227.347656 165.171875 224.105469 168.054688 220.371094 C 168.75 220.273438 169.207031 220.417969 169.554688 220.667969 " fill-opacity="1" fill-rule="evenodd"/><path fill="#ffffff" d="M 130.914062 225.171875 C 130.863281 227.851562 127.859375 229.203125 126.121094 230.875 C 122.484375 234.375 119.191406 238.070312 115.636719 241.984375 C 114.292969 243.464844 111.976562 246.359375 109.648438 246.1875 C 108.886719 243.449219 112.105469 242.0625 113.542969 240.484375 C 115.121094 238.742188 116.441406 236.808594 118.035156 235.082031 C 121.511719 231.304688 125.847656 228.28125 129.117188 224.574219 C 129.910156 224.574219 130.878906 224.40625 130.914062 225.171875 " fill-opacity="1" fill-rule="evenodd"/><path fill="#ffffff" d="M 138.703125 225.171875 C 139.222656 226.816406 137.441406 227.539062 136.605469 228.476562 C 132.539062 233.027344 128.253906 237.75 123.722656 242.285156 C 122.1875 243.828125 120.5625 247.050781 117.734375 246.1875 C 118.046875 243.75 120.363281 242.050781 121.929688 240.484375 C 126.832031 235.566406 131.796875 229.707031 136.90625 224.871094 C 137.640625 224.832031 138.347656 224.828125 138.703125 225.171875 " fill-opacity="1" fill-rule="evenodd"/><path fill="#ffffff" d="M 171.351562 236.28125 C 171.917969 238.03125 170.019531 239.441406 168.953125 240.484375 C 162.015625 247.292969 155.332031 255.160156 147.988281 262.097656 C 146.945312 263.085938 145.746094 265.253906 143.792969 263.601562 C 143.527344 261.460938 145.464844 261.207031 146.488281 260.300781 C 148.496094 258.519531 150.222656 256.230469 152.179688 254.296875 C 158.03125 248.5 163.316406 241.476562 169.855469 235.980469 C 170.546875 235.882812 171.003906 236.03125 171.351562 236.28125 " fill-opacity="1" fill-rule="evenodd"/><path fill="#ffffff" d="M 277.984375 238.679688 C 277.921875 240.347656 276.589844 241.867188 275.585938 243.1875 C 270.996094 249.253906 265.910156 255.664062 260.613281 261.5 C 259.710938 262.496094 258.472656 263.753906 257.316406 264.804688 C 256.292969 265.734375 254.734375 267.304688 253.125 266.601562 C 252.25 264.703125 254.574219 263.894531 255.519531 263.003906 C 260.582031 258.21875 265.527344 251.734375 270.195312 245.886719 C 272.410156 243.113281 274.277344 239.472656 276.785156 238.082031 C 277.230469 238.238281 277.539062 238.527344 277.984375 238.679688 " fill-opacity="1" fill-rule="evenodd"/><path fill="#ffffff" d="M 286.074219 239.582031 C 285.109375 242.722656 282.695312 245.25 280.683594 247.6875 C 276.628906 252.597656 272.265625 256.933594 267.800781 261.800781 C 266.789062 262.90625 265.640625 264.265625 264.507812 265.402344 C 263.609375 266.304688 262.296875 268.25 260.613281 267.507812 C 259.59375 265.625 261.765625 264.570312 262.707031 263.601562 C 265.78125 260.460938 268.589844 256.882812 271.695312 253.394531 C 275.910156 248.664062 280.691406 244.449219 283.976562 238.984375 C 285.070312 238.789062 285.570312 239.183594 286.074219 239.582031 " fill-opacity="1" fill-rule="evenodd"/><path fill="#ffffff" d="M 174.945312 240.484375 C 175.671875 242.136719 173.898438 242.820312 173.148438 243.785156 C 169.535156 248.445312 165.160156 252.394531 160.867188 256.695312 C 159.289062 258.277344 158.113281 260.972656 155.476562 261.199219 C 154.203125 258.796875 157.078125 257.191406 158.472656 255.796875 C 160.015625 254.246094 161.703125 252.457031 163.265625 250.992188 C 166.933594 247.542969 170.140625 243.785156 173.148438 240.183594 C 173.886719 240.144531 174.589844 240.140625 174.945312 240.484375 " fill-opacity="1" fill-rule="evenodd"/><path fill="#ffffff" d="M 342.085938 242.585938 C 342.542969 246.34375 339.367188 249.546875 337.890625 253.09375 C 335.628906 258.539062 333.429688 262.84375 330.101562 267.207031 C 327.738281 270.304688 325.929688 271.789062 322.617188 274.410156 C 319.289062 277.039062 316.960938 279.296875 312.730469 281.617188 C 311.136719 282.488281 308.484375 284.738281 307.042969 282.214844 C 308.191406 280.609375 310.300781 280.074219 311.832031 279.214844 C 313.519531 278.261719 315.121094 277.386719 316.625 276.214844 C 318.019531 275.121094 319.308594 273.5 320.820312 272.308594 C 323.832031 269.929688 325.890625 268.65625 328.304688 265.402344 C 330.960938 261.839844 333.4375 257.625 335.496094 252.792969 C 336.871094 249.5625 338.574219 246.164062 339.992188 243.183594 C 340.09375 242.789062 340.515625 242.714844 340.589844 242.285156 C 341.4375 242.035156 341.363281 242.707031 342.085938 242.585938 " fill-opacity="1" fill-rule="evenodd"/><path fill="#ffffff" d="M 262.707031 243.785156 C 261.597656 247.863281 257.898438 250.632812 255.222656 253.695312 C 253.976562 255.117188 252.683594 256.894531 251.324219 258.5 C 250.289062 259.726562 248.789062 262.367188 246.535156 261.5 C 246.15625 259.582031 248.117188 258.015625 249.230469 256.695312 C 252.765625 252.507812 257.597656 248.078125 260.613281 243.183594 C 261.707031 242.992188 262.207031 243.386719 262.707031 243.785156 " fill-opacity="1" fill-rule="evenodd"/><path fill="#ffffff" d="M 286.671875 244.386719 C 286.589844 246.894531 284.453125 248.863281 283.078125 250.691406 C 280.210938 254.496094 277.789062 258.207031 274.394531 261.800781 C 272.980469 263.289062 271.507812 265.878906 269 265.402344 C 268.234375 262.867188 271.332031 261.65625 272.59375 260.300781 C 274.019531 258.761719 275.273438 256.925781 276.488281 255.195312 C 279.234375 251.285156 282.238281 247.644531 284.875 243.785156 C 285.910156 243.546875 286.140625 244.121094 286.671875 244.386719 " fill-opacity="1" fill-rule="evenodd"/><path fill="#ffffff" d="M 238.746094 245.289062 C 238.375 248.039062 236.058594 250.046875 234.253906 251.894531 C 230.65625 255.578125 226.96875 259.277344 222.867188 262.699219 C 221.066406 264.207031 219.320312 267.007812 216.578125 266.601562 C 216.242188 263.265625 219.695312 262.585938 221.675781 260.902344 C 224.230469 258.71875 226.226562 255.53125 228.863281 253.09375 C 231.839844 250.339844 234.621094 248.074219 236.949219 244.988281 C 237.6875 244.949219 238.394531 244.941406 238.746094 245.289062 " fill-opacity="1" fill-rule="evenodd"/><path fill="#ffffff" d="M 230.359375 246.492188 C 229.546875 249.097656 227.109375 250.910156 225.269531 252.792969 C 220.660156 257.503906 216.515625 262.855469 211.1875 267.207031 C 210.285156 267.941406 208.890625 269.335938 207.59375 268.707031 C 206.613281 266.738281 208.910156 265.425781 209.988281 264.5 C 211.269531 263.414062 212.75 262.335938 213.886719 261.199219 C 216.191406 258.894531 218.152344 256.019531 220.472656 253.695312 C 223.0625 251.101562 226.140625 248.867188 228.261719 245.886719 C 229.355469 245.691406 229.859375 246.089844 230.359375 246.492188 " fill-opacity="1" fill-rule="evenodd"/><path fill="#ffffff" d="M 177.644531 246.492188 C 177.941406 248.140625 176.351562 249.574219 175.246094 250.992188 C 173.523438 253.195312 171.875 256.792969 168.652344 255.496094 C 169.03125 253.304688 171.007812 252.148438 172.25 250.691406 C 173.511719 249.214844 174.523438 247.648438 175.84375 246.1875 C 176.582031 246.148438 177.289062 246.144531 177.644531 246.492188 " fill-opacity="1" fill-rule="evenodd"/><path fill="#ffffff" d="M 74.601562 263.601562 C 70.804688 266.558594 66.882812 269.046875 62.320312 271.105469 C 59.371094 272.441406 56.054688 273.234375 53.332031 274.710938 C 50.8125 276.082031 46.355469 280.125 47.042969 284.019531 C 47.882812 288.773438 54.558594 287.210938 57.828125 285.515625 C 63.953125 282.347656 66.414062 278.828125 70.707031 273.808594 C 73.199219 270.898438 76.042969 268.261719 77.296875 266.003906 C 77.851562 265 77.949219 263.949219 78.496094 263.003906 C 79.078125 261.980469 79.761719 261.363281 80.292969 260.597656 C 80.257812 260.234375 80.203125 259.886719 79.691406 259.996094 C 78.398438 261.585938 76.339844 262.25 74.601562 263.601562 Z M 82.089844 255.195312 C 82.515625 255.167969 82.9375 255.144531 82.988281 255.496094 C 84.453125 255.746094 83.722656 257.214844 83.589844 258.199219 C 83.019531 262.265625 79.976562 266.695312 77.597656 269.90625 C 72.359375 276.972656 63.230469 286.984375 55.132812 289.421875 C 49.324219 291.171875 43.851562 287.839844 44.347656 282.214844 C 44.632812 278.988281 48.867188 274.261719 51.835938 272.609375 C 53.777344 271.527344 56.0625 270.878906 58.125 269.90625 C 62.171875 268 66.460938 266.335938 70.109375 263.902344 C 72.855469 262.074219 75.1875 260.257812 78.195312 258.199219 C 79.570312 257.253906 80.800781 256.316406 82.089844 255.195312 " fill-opacity="1" fill-rule="evenodd"/><path fill="#ffffff" d="M 322.617188 263.902344 C 322.878906 265.679688 320.710938 268.222656 319.320312 269.605469 C 317.722656 271.195312 315.183594 272.617188 313.027344 274.113281 C 308.585938 277.1875 304 278.921875 298.351562 281.019531 C 295.832031 281.949219 293.28125 283.753906 290.5625 283.121094 C 289.773438 280.738281 292.082031 280.953125 293.257812 280.414062 C 296.730469 278.820312 300.609375 277.535156 304.34375 275.910156 C 310.78125 273.113281 316.660156 269.394531 320.515625 263.902344 C 320.589844 263.578125 321.113281 263.699219 321.117188 263.300781 C 321.859375 263.257812 322.359375 263.457031 322.617188 263.902344 " fill-opacity="1" fill-rule="evenodd"/><path fill="#ffffff" d="M 340.585938 264.804688 C 342.855469 265.308594 341.378906 267.121094 340.886719 268.105469 C 340.394531 269.085938 339.253906 270.558594 338.789062 271.105469 C 337.207031 272.964844 334.476562 275.351562 332.199219 277.414062 C 331.183594 278.332031 329.742188 279.269531 328.605469 280.113281 C 327.363281 281.042969 326.050781 282.6875 324.710938 281.316406 C 325.023438 278.511719 328.097656 277.652344 329.804688 276.214844 C 330.960938 275.234375 331.902344 273.707031 333.097656 272.609375 C 334.296875 271.507812 335.75 270.703125 336.691406 269.605469 C 338.09375 267.984375 338.5 265.84375 340.585938 264.804688 " fill-opacity="1" fill-rule="evenodd"/><path fill="#ffffff" d="M 79.691406 318.84375 C 79.175781 325.695312 79.898438 330.636719 82.988281 334.15625 C 85.042969 336.5 89.824219 339.332031 92.871094 338.660156 C 95.574219 338.066406 97.070312 333.460938 96.46875 329.050781 C 95.925781 325.089844 93.625 320.90625 92.570312 316.441406 C 90.734375 308.628906 89.277344 301 89.878906 290.921875 C 89.859375 290.738281 89.832031 290.570312 89.578125 290.625 C 85.859375 297.484375 80.523438 307.871094 79.691406 318.84375 Z M 90.175781 285.21875 C 92.734375 284.929688 92.230469 288.300781 92.273438 290.023438 C 92.433594 296.289062 92.476562 304.140625 93.472656 308.640625 C 94.324219 312.488281 95.253906 316.105469 96.167969 319.144531 C 97.214844 322.636719 98.820312 326.292969 99.164062 329.355469 C 99.800781 335.039062 97.007812 340.289062 93.769531 341.0625 C 89.101562 342.175781 83.605469 338.5 81.488281 336.257812 C 77.851562 332.394531 76.496094 327.515625 76.996094 320.042969 C 77.917969 306.320312 85.015625 292.40625 90.175781 285.21875 " fill-opacity="1" fill-rule="evenodd"/><g clip-path="url(#93844c66a9)"><path fill="#ffffff" d="M 52.734375 302.035156 C 54.394531 308.113281 51.78125 314.261719 45.847656 314.640625 C 45.757812 314.027344 45.035156 314.054688 44.949219 313.441406 C 45.058594 309.046875 47.300781 306.792969 47.941406 302.933594 C 43.945312 304.058594 40.324219 303.714844 37.757812 307.136719 C 34.917969 310.925781 36.136719 320.671875 40.15625 321.546875 C 43.195312 322.210938 47.304688 318.921875 49.4375 317.34375 C 55.070312 313.1875 59.394531 308.390625 62.921875 302.632812 C 63.378906 301.882812 64.875 300.511719 63.816406 299.632812 C 60.414062 300.722656 56.734375 301.539062 52.734375 302.035156 Z M 52.4375 299.632812 C 57.785156 298.882812 62.195312 297.203125 67.113281 296.027344 C 69.804688 300.476562 61.398438 308.207031 59.625 311.636719 C 61.496094 312.015625 63.464844 308.554688 65.3125 308.640625 C 66.886719 308.703125 68.566406 310.527344 67.113281 312.839844 C 65.847656 313.109375 65.421875 312.53125 65.015625 311.941406 C 62.691406 313.511719 59.765625 314.484375 56.328125 314.941406 C 60.039062 316.351562 61.769531 313.191406 65.3125 313.441406 C 65.6875 314.785156 66.09375 318.03125 64.714844 318.546875 C 63.359375 318.703125 62.757812 318.101562 62.921875 316.742188 C 59.960938 318.808594 56.238281 317.113281 53.03125 317.945312 C 51.789062 318.265625 50.179688 319.914062 48.542969 320.945312 C 45.980469 322.5625 44.09375 324.113281 39.855469 324.246094 C 38.902344 326.148438 40.222656 328.671875 38.957031 329.953125 C 37.777344 330.59375 36.539062 329.074219 36.859375 327.253906 C 35.085938 328.074219 31.074219 330.441406 29.070312 328.152344 C 29.765625 325.53125 33.332031 326.71875 35.363281 325.152344 C 36.1875 324.507812 35.949219 323.507812 37.160156 323.046875 C 34.566406 319.792969 33.125 315.332031 33.863281 310.136719 C 34.824219 303.410156 41.6875 301.1875 48.242188 300.230469 C 48.3125 297.804688 47.371094 294.425781 49.738281 295.125 C 51.574219 295.6875 51.273438 298.394531 52.4375 299.632812 " fill-opacity="1" fill-rule="evenodd"/></g><path fill="#ffffff" d="M 42.25 311.941406 C 42.238281 313.675781 41.835938 314.535156 40.753906 314.640625 C 37.945312 314.917969 38.949219 309.4375 42.25 311.941406 " fill-opacity="1" fill-rule="evenodd"/><g clip-path="url(#6c2ece3f47)"><path fill="#ffffff" d="M 316.027344 241.683594 C 315.851562 240.488281 317.726562 238.550781 316.925781 238.679688 C 316.570312 239.441406 315.144531 240.683594 316.027344 241.683594 Z M 325.3125 229.976562 C 325.511719 229.550781 326.628906 227.605469 325.910156 228.175781 C 325.847656 228.742188 324.710938 229.734375 325.3125 229.976562 Z M 317.824219 222.46875 C 317.386719 224.433594 315.070312 226.109375 315.425781 227.875 C 315.929688 226.4375 318.308594 223.0625 317.824219 222.46875 Z M 328.90625 221.871094 C 328.316406 223.484375 326.59375 225.550781 326.808594 226.972656 C 327.574219 225.691406 329.308594 222.339844 328.90625 221.871094 Z M 329.507812 220.96875 C 329.71875 220.722656 330.441406 219.027344 329.804688 219.769531 C 329.589844 220.015625 328.863281 221.707031 329.507812 220.96875 Z M 321.417969 230.875 C 323.21875 225.972656 326.875 221.335938 327.707031 216.464844 C 325.820312 221.277344 322.515625 226.269531 321.417969 230.875 Z M 328.007812 209.859375 C 327.992188 209.546875 327.625 209.625 327.707031 210.160156 C 323.621094 215.242188 320.894531 222.574219 317.824219 228.476562 C 316.824219 230.398438 314.878906 232.824219 316.027344 235.082031 C 320.316406 226.96875 323.886719 218.136719 328.007812 209.859375 Z M 315.128906 207.15625 C 314.972656 206.085938 316.675781 205.328125 316.027344 204.757812 C 315.949219 205.597656 314.34375 206.449219 315.128906 207.15625 Z M 236.050781 208.359375 C 236.460938 203.800781 236.855469 196.78125 234.855469 193.648438 C 234.449219 198.238281 235.816406 203.425781 236.050781 208.359375 Z M 319.921875 210.460938 C 319.207031 211.695312 318.582031 212.851562 317.824219 214.0625 C 316.488281 216.207031 313.753906 218.953125 315.425781 221.871094 C 320.273438 212.316406 327.191406 203.238281 330.40625 193.046875 C 327.230469 198.875 323.183594 204.796875 319.921875 210.460938 Z M 234.550781 191.246094 C 234.636719 190.835938 234.367188 190.074219 234.253906 190.644531 C 234.171875 191.054688 234.441406 191.816406 234.550781 191.246094 Z M 334 180.140625 C 331.832031 184.007812 329.894531 187.996094 327.707031 191.546875 C 325.496094 195.140625 322.550781 198.355469 320.519531 202.054688 C 319.480469 203.941406 318.683594 205.867188 317.527344 207.757812 C 316.527344 209.382812 314.355469 211.40625 315.128906 213.765625 C 321.160156 202.34375 329.304688 191.320312 335.195312 179.835938 C 336.730469 176.84375 338.378906 173.648438 339.691406 170.828125 C 340.097656 169.953125 341.269531 168.304688 340.289062 168.125 C 338.75 172.453125 336.222656 176.15625 334 180.140625 Z M 124.625 168.125 C 121.328125 168.59375 118.042969 168.589844 115.335938 169.328125 C 114.445312 169.574219 113.933594 170.449219 112.941406 170.828125 C 111.851562 171.246094 110.492188 171.058594 109.648438 171.429688 C 107.824219 172.234375 106.261719 174.4375 104.257812 175.933594 C 102.117188 177.523438 99.722656 178.390625 98.265625 180.140625 C 97.261719 181.335938 96.5 182.964844 95.867188 184.039062 C 93.683594 187.753906 92.351562 191.523438 91.375 196.652344 C 89.578125 206.078125 88.832031 220.128906 90.476562 229.675781 C 90.914062 232.222656 91.097656 234.910156 91.671875 237.179688 C 92.042969 238.632812 93.054688 240.285156 93.769531 241.984375 C 95.835938 246.863281 97.523438 249.589844 100.660156 253.394531 C 102.332031 255.421875 103.753906 257.800781 105.453125 259.699219 C 111.382812 266.324219 117.132812 269.96875 125.222656 273.207031 C 132.664062 276.1875 139.917969 277.542969 149.785156 278.011719 C 157.214844 278.363281 161.679688 277.363281 166.859375 275.609375 C 171.789062 273.941406 175.90625 272.578125 179.738281 270.507812 C 186.140625 267.046875 189.863281 262.910156 193.515625 256.996094 C 195.125 254.386719 197.144531 251.976562 198.011719 249.492188 C 198.90625 246.914062 199.179688 243.660156 199.507812 240.484375 C 200.496094 230.917969 200.941406 218.257812 199.804688 208.957031 C 199.050781 202.746094 195.226562 196.753906 192.617188 192.445312 C 191.105469 189.949219 189.886719 187.300781 188.722656 185.84375 C 186.824219 183.453125 181.964844 178.59375 179.738281 177.132812 C 177.242188 175.5 173.519531 174.332031 170.152344 172.929688 C 166.910156 171.582031 163.664062 169.847656 160.269531 169.027344 C 156.953125 168.230469 152.128906 168.035156 147.6875 167.527344 C 142.804688 166.972656 137.132812 166.265625 133.910156 166.625 C 130.523438 167.007812 127.472656 167.726562 124.625 168.125 Z M 324.414062 189.742188 C 322.722656 192.945312 319.917969 195.691406 319.320312 199.351562 C 322.695312 193.980469 326.265625 188.773438 329.507812 183.136719 C 331.933594 178.921875 334.585938 174.558594 336.695312 170.53125 C 337.566406 168.863281 337.660156 167.082031 338.492188 165.429688 C 339.273438 163.871094 341.671875 162.636719 340.289062 160.324219 C 334.964844 170.015625 329.527344 180.078125 324.414062 189.742188 Z M 334 163.324219 C 332.066406 167.476562 330.121094 171.578125 327.707031 175.335938 C 325.273438 179.125 323.269531 182.796875 321.117188 186.742188 C 319.019531 190.589844 315.671875 193.753906 313.929688 197.851562 C 314.632812 198.847656 313.773438 201.410156 314.527344 202.355469 C 321.34375 188.191406 330.496094 174.328125 337.589844 159.722656 C 339.273438 156.257812 341.289062 153.992188 340.289062 150.417969 C 338.070312 154.800781 336.015625 158.988281 334 163.324219 Z M 228.261719 176.535156 C 230.5 180.558594 232.929688 184.609375 233.953125 189.742188 C 234.15625 186.058594 231.664062 179.796875 230.0625 176.535156 C 229.84375 175.617188 230.574219 175.652344 230.359375 174.730469 C 227.132812 169.519531 224.019531 163.003906 218.976562 158.21875 C 217.921875 157.21875 216.1875 156.613281 214.78125 155.519531 C 213.507812 154.519531 212.472656 153.160156 211.1875 152.214844 C 208.484375 150.234375 205.238281 147.917969 202.503906 146.8125 C 194.277344 143.480469 178.925781 142.949219 167.15625 142.007812 C 163.183594 141.6875 158.792969 141.421875 155.175781 142.007812 C 151.804688 142.554688 149.679688 145.761719 146.789062 147.714844 C 144.242188 149.433594 142.074219 151.195312 139.898438 152.816406 C 135.824219 155.851562 131.46875 158.65625 128.21875 161.824219 C 128.101562 161.933594 126.644531 162.445312 127.621094 163.023438 C 133.246094 161.109375 139.359375 162.019531 145.890625 162.726562 C 150.085938 163.171875 154.179688 163.46875 157.574219 163.925781 C 163.230469 164.691406 169.234375 167.257812 174.644531 169.628906 C 177.421875 170.84375 179.988281 172.066406 182.132812 173.535156 C 189.121094 178.3125 193.421875 184.492188 197.710938 192.144531 C 200.609375 197.328125 203.699219 202.820312 204.300781 208.359375 C 205.167969 216.355469 205.734375 225.203125 204.898438 234.78125 C 204.339844 241.144531 203.617188 249.460938 201.007812 254.296875 C 200.300781 255.597656 199.046875 256.0625 198.90625 257.601562 C 203.941406 252.46875 209.59375 247.929688 215.382812 243.484375 C 219.648438 240.210938 224.027344 236.34375 227.066406 232.078125 C 228.109375 230.605469 229.515625 229.082031 230.359375 227.574219 C 233 222.863281 233.386719 216.878906 235.453125 210.761719 C 235.300781 210.351562 233.78125 211.738281 233.355469 210.460938 C 232.765625 204.148438 232.75 198.71875 232.15625 193.347656 C 231.484375 187.25 228.566406 182.023438 226.164062 177.734375 C 225.527344 176.59375 223.089844 174.636719 225.269531 173.230469 C 226.953125 173.339844 227.585938 175.320312 228.261719 176.535156 Z M 327.109375 164.523438 C 324 169.886719 319.707031 176.277344 316.324219 181.9375 C 313.933594 185.941406 312.558594 187.875 313.332031 192.746094 C 316.527344 189.871094 318.429688 186.003906 320.519531 182.238281 C 322.578125 178.539062 324.898438 174.851562 327.109375 171.132812 C 329.320312 167.402344 331.226562 163.425781 333.101562 159.421875 C 334.980469 155.398438 337.148438 151.441406 338.492188 147.113281 C 338.777344 146.492188 340.035156 146.855469 339.988281 145.910156 C 339.984375 143.113281 339.867188 140.429688 339.390625 138.105469 C 335.570312 146.097656 332.082031 155.949219 327.109375 164.523438 Z M 333.101562 139.003906 C 328.214844 153.585938 319.328125 164.527344 313.628906 178.035156 C 313.425781 178.632812 311.84375 177.851562 312.132812 178.9375 C 312.277344 180.492188 312.261719 182.207031 312.730469 183.441406 C 317.058594 175.777344 322.171875 168.023438 326.808594 159.421875 C 329.921875 153.652344 333.414062 145.988281 336.09375 139.90625 C 336.554688 138.863281 336.742188 137.40625 337.292969 136.300781 C 337.914062 135.058594 338.925781 134.226562 339.089844 133.300781 C 339.605469 130.46875 338.296875 126.378906 338.492188 123.695312 C 336.765625 128.902344 334.792969 133.945312 333.101562 139.003906 Z M 241.140625 113.488281 C 239.832031 114.074219 239.039062 115.179688 237.847656 115.886719 C 236.195312 120.210938 234.082031 124.53125 233.355469 130 C 232.804688 134.117188 232.898438 138.75 232.15625 143.207031 C 231.746094 145.683594 230.398438 148.867188 229.757812 152.214844 C 229.457031 153.785156 229.332031 155.300781 228.863281 157.019531 C 228.367188 158.824219 227.726562 160.46875 227.964844 161.824219 C 228.195312 163.148438 230.164062 165 230.960938 166.324219 C 233.089844 169.886719 236.023438 175.289062 237.546875 178.9375 C 239.121094 182.695312 239.425781 187.316406 239.945312 192.445312 C 240.496094 197.894531 241.523438 202.980469 240.84375 208.359375 C 240.507812 210.988281 239.109375 213.703125 238.449219 216.464844 C 237.703125 219.558594 237.316406 222.59375 236.351562 225.171875 C 234.382812 230.4375 231.152344 233.925781 228.261719 238.382812 C 222.621094 243.496094 216.265625 248.667969 209.988281 253.695312 C 206.996094 256.089844 204.304688 259.355469 201.304688 261.800781 C 198.851562 263.796875 196.070312 265.183594 194.117188 267.207031 C 193.578125 267.761719 191.722656 268.640625 192.917969 269.003906 C 195.214844 269.003906 197.507812 269.003906 199.804688 269.003906 C 200.183594 265.46875 204.164062 264.105469 206.996094 261.800781 C 208.695312 260.417969 210.28125 258.324219 211.785156 256.695312 C 213.320312 255.039062 214.722656 252.207031 217.179688 252.792969 C 217.46875 255.09375 215.140625 257.109375 213.585938 258.796875 C 212.066406 260.445312 210.175781 262.535156 208.492188 263.902344 C 206.234375 265.734375 202.703125 267.027344 202.203125 269.605469 C 218.785156 268.601562 235.71875 270.945312 252.226562 269.605469 C 263.046875 268.730469 274.347656 267.222656 284.574219 266.003906 C 290.023438 265.355469 296.796875 264.238281 301.347656 261.800781 C 303.257812 260.777344 306.8125 258.578125 307.941406 257.296875 C 311.386719 253.378906 311.546875 240.417969 310.933594 234.480469 C 309.71875 222.640625 310.765625 212.460938 309.734375 200.253906 C 308.746094 188.488281 306.96875 176.550781 306.140625 165.125 C 306.03125 163.59375 305.722656 162.175781 305.542969 160.621094 C 305.136719 157.1875 305.597656 153.894531 305.242188 150.714844 C 304.984375 148.410156 303.9375 145.054688 303.144531 142.007812 C 301.257812 134.726562 299.839844 129.539062 293.859375 127.296875 C 292.632812 125.097656 290.257812 123.835938 288.171875 122.191406 C 286.261719 120.691406 284.101562 118.40625 281.878906 117.386719 C 278.796875 115.976562 275.027344 116.308594 271.097656 115.289062 C 270.542969 115.410156 272.109375 116.714844 271.097656 117.386719 C 263.046875 124.046875 256.003906 132.890625 249.230469 140.503906 C 248.332031 141.515625 247.273438 143.828125 245.335938 142.609375 C 245.90625 139.367188 248.707031 137.308594 250.726562 135.105469 C 252.777344 132.867188 254.753906 130.511719 256.71875 128.199219 C 260.660156 123.546875 264.972656 119.253906 269.296875 114.988281 C 267.265625 114.226562 264.328125 114.367188 261.511719 114.386719 C 259.261719 119.488281 255.164062 122.597656 251.628906 126.394531 C 250.382812 127.730469 249.101562 129.457031 248.03125 130.898438 C 247.003906 132.285156 246.242188 135.128906 243.839844 134.5 C 243.089844 132.097656 245.378906 130.324219 246.535156 128.796875 C 250.574219 123.460938 255.660156 119.300781 259.113281 113.785156 C 253.207031 113.597656 246.554688 114.167969 241.140625 113.488281 Z M 240.246094 108.382812 C 240.996094 108.429688 241.183594 107.921875 241.441406 107.480469 C 240.691406 107.429688 240.503906 107.941406 240.246094 108.382812 Z M 244.4375 105.980469 C 244.605469 105.789062 245.652344 105.074219 244.738281 104.78125 C 244.78125 105.179688 243.519531 105.6875 244.4375 105.980469 Z M 247.734375 103.878906 C 247.933594 103.878906 248.132812 103.878906 248.332031 103.878906 C 248.332031 103.679688 248.332031 103.476562 248.332031 103.277344 C 248.132812 103.277344 247.933594 103.277344 247.734375 103.277344 C 247.734375 103.476562 247.734375 103.679688 247.734375 103.878906 Z M 250.726562 102.078125 C 251.679688 102.335938 251.65625 101.605469 252.226562 101.476562 C 252.121094 100.394531 251.765625 100.03125 252.226562 99.074219 C 250.527344 98.871094 251.371094 101.222656 250.726562 102.078125 Z M 141.097656 96.972656 C 138.964844 98.503906 136.53125 99.972656 134.808594 102.078125 C 132.152344 105.324219 130.492188 109.355469 128.21875 112.882812 C 126.988281 114.792969 125.886719 116.34375 124.921875 118.289062 C 123.929688 120.300781 123.007812 123.667969 121.929688 125.195312 C 120.023438 127.882812 117.507812 130.769531 115.335938 133.601562 C 112.804688 136.90625 110.734375 139.773438 108.148438 141.40625 C 102.675781 144.875 91.074219 145.863281 84.785156 142.308594 C 84.316406 158.523438 86.839844 175.058594 87.480469 188.542969 C 87.546875 189.898438 86.894531 191.304688 87.78125 192.445312 C 88.386719 186.347656 91.6875 182.953125 93.769531 178.335938 C 95.597656 176.328125 97.765625 174.773438 100.0625 173.230469 C 104.886719 169.988281 108.480469 165.195312 115.9375 164.824219 C 124.605469 160.117188 131.074219 153.035156 137.800781 146.8125 C 138.953125 145.75 140.242188 144.882812 141.398438 143.808594 C 142.53125 142.753906 143.261719 140.859375 144.992188 140.503906 C 146.269531 140.328125 145.921875 141.773438 146.488281 142.308594 C 147.730469 140.851562 149.632812 140.054688 150.683594 138.40625 C 152.195312 123.007812 157.773438 111.6875 160.867188 97.875 C 153.613281 98.242188 147.875 97.085938 141.097656 96.972656 Z M 254.921875 96.671875 C 255.128906 97.878906 254.632812 98.386719 254.621094 99.375 C 256.445312 98.976562 258.222656 97.050781 260.3125 95.472656 C 262.15625 94.078125 265.015625 92.835938 265.707031 91.265625 C 266.058594 90.460938 266.578125 88.523438 265.402344 87.664062 C 262.425781 91.179688 258.796875 94.054688 254.921875 96.671875 Z M 268.398438 87.066406 C 269.667969 86.824219 269.949219 84.023438 269.296875 82.859375 C 268.722656 83.988281 268.121094 85.085938 268.398438 87.066406 Z M 315.425781 168.429688 C 316.5 166.289062 317.761719 163.988281 319.023438 161.824219 C 321.511719 157.546875 324.335938 153.1875 326.507812 148.613281 C 329.742188 141.808594 332.425781 133.296875 334.898438 126.09375 C 335.492188 124.363281 336.109375 121.820312 336.992188 120.390625 C 337.558594 119.472656 337.960938 119.902344 338.191406 118.890625 C 339.066406 115.0625 337.742188 111.273438 337.292969 108.980469 C 335.71875 100.945312 332.195312 93.914062 327.707031 89.46875 C 325.511719 87.289062 323.082031 85.246094 321.117188 83.164062 C 308.796875 77.601562 296.09375 72.417969 277.085938 73.554688 C 276.621094 94.707031 260.945312 100.605469 248.03125 109.28125 C 255.230469 109.421875 261.691406 109.15625 267.800781 109.882812 C 268.855469 110.011719 269.855469 110.554688 271.097656 110.785156 C 273.976562 111.3125 277.398438 111.328125 280.082031 111.984375 C 286.105469 113.460938 289.542969 117.707031 293.859375 120.992188 C 297.371094 123.664062 301.027344 125.878906 303.144531 128.796875 C 304.871094 131.171875 305.34375 134.054688 306.738281 136.605469 C 309.484375 132.882812 311.800781 128.070312 313.332031 123.394531 C 313.804688 121.949219 313.886719 119.320312 316.027344 119.191406 C 317.839844 120.835938 315.976562 123.566406 315.425781 125.195312 C 314.011719 129.417969 312.222656 133.445312 310.035156 136.605469 C 308.851562 138.3125 306.4375 139.753906 307.941406 142.007812 C 309.925781 140.363281 310.996094 137.566406 312.433594 135.105469 C 313.902344 132.578125 315.5 130.023438 316.925781 127.296875 C 319.144531 123.050781 320.375 118.4375 322.316406 114.386719 C 322.886719 113.195312 323.796875 111.015625 325.613281 111.382812 C 325.851562 114.816406 323.78125 117.722656 322.617188 120.691406 C 318.9375 130.082031 313.75 138.265625 308.835938 146.210938 C 309.578125 148.066406 309.539062 150.714844 310.035156 152.816406 C 317.375 140.492188 324.023438 126.433594 328.90625 111.984375 C 329.527344 110.144531 329.78125 107.234375 331.902344 106.28125 C 333.632812 108.066406 332.207031 111.046875 331.601562 112.882812 C 327.9375 123.980469 322.730469 134.0625 318.121094 143.808594 C 316.199219 147.875 313.414062 151.269531 311.832031 155.21875 C 311.449219 155.632812 310.535156 155.515625 309.734375 155.519531 C 310.265625 156.890625 310.0625 158.996094 310.636719 160.324219 C 314.828125 152.894531 320.066406 145.621094 324.117188 137.503906 C 327.234375 131.246094 329.609375 124.496094 332.203125 118.289062 C 332.945312 116.5 333.425781 113.085938 336.09375 112.882812 C 336.890625 115.25 335.476562 117.734375 334.597656 119.789062 C 333.621094 122.074219 332.511719 124.394531 331.601562 126.695312 C 326.992188 138.398438 321.082031 148.476562 314.527344 158.824219 C 313.171875 160.957031 311.175781 163.582031 310.933594 165.125 C 310.460938 168.121094 312.050781 171.9375 311.535156 174.730469 C 313.839844 173.523438 314.304688 170.667969 315.425781 168.429688 Z M 159.371094 54.339844 C 147.097656 55.117188 136.15625 55.746094 126.417969 59.746094 C 124.933594 60.355469 123.175781 61.410156 121.628906 62.144531 C 113.867188 65.835938 107.597656 70.925781 102.15625 77.160156 C 100.21875 79.382812 98.304688 82.363281 96.46875 84.964844 C 91.75 91.644531 89.761719 96.433594 87.480469 105.980469 C 86.421875 110.414062 85.386719 115.183594 85.085938 119.789062 C 84.714844 125.4375 84.214844 135.925781 87.183594 138.40625 C 90.613281 141.273438 102.929688 139.3125 105.453125 137.804688 C 107.910156 136.332031 109.804688 133.292969 112.042969 130.296875 C 115.191406 126.089844 118.636719 123.472656 119.230469 118.289062 C 123.488281 111.820312 127.898438 103 132.710938 97.574219 C 134.335938 95.738281 138.675781 92.34375 141.398438 92.167969 C 142.714844 92.082031 144.203125 92.671875 145.589844 92.769531 C 150.664062 93.125 156.382812 93.011719 162.664062 93.070312 C 166.144531 87.085938 169.804688 80.976562 174.347656 75.65625 C 179.703125 69.382812 185.539062 62.519531 192.015625 58.242188 C 193.128906 57.511719 195.167969 56.925781 195.015625 55.84375 C 184.261719 53.890625 171.683594 53.558594 159.371094 54.339844 Z M 223.472656 130.597656 C 224.1875 124.84375 225.265625 116.339844 227.363281 112.882812 C 228.242188 111.4375 230.761719 109.609375 232.753906 108.082031 C 235.984375 105.605469 238.792969 103.734375 241.441406 101.476562 C 244.292969 99.050781 247.320312 96.742188 250.128906 94.570312 C 256.054688 89.988281 261.542969 85.792969 266.003906 79.859375 C 269.089844 75.753906 272.757812 71.75 270.496094 64.847656 C 264.15625 61.320312 255.660156 61.238281 247.433594 59.144531 C 239.714844 57.179688 231.789062 54.582031 224.367188 53.441406 C 216.761719 52.265625 209.839844 53.46875 205.195312 55.84375 C 200.222656 58.382812 193.917969 61.945312 190.222656 65.148438 C 187.328125 67.652344 184.609375 71.3125 181.535156 74.457031 C 177.671875 78.40625 174.144531 82.863281 171.648438 87.066406 C 171.058594 88.0625 170.527344 88.789062 169.855469 89.765625 C 165.957031 95.417969 164.949219 101.84375 162.664062 109.28125 C 159.894531 118.300781 156.640625 127.457031 155.175781 137.503906 C 162.632812 136.898438 169.910156 138.132812 175.84375 138.40625 C 178.785156 138.539062 181.703125 138.214844 184.53125 138.40625 C 188.136719 138.648438 192.421875 139.515625 195.015625 140.207031 C 196.089844 140.492188 197.199219 140.539062 198.308594 140.808594 C 207.886719 143.117188 213.414062 148.59375 219.875 153.117188 C 222.359375 146.910156 222.546875 138.019531 223.472656 130.597656 Z M 277.386719 69.050781 C 286.308594 68.90625 294.316406 68.941406 301.347656 70.851562 C 304.628906 71.746094 307.792969 73.058594 310.933594 74.15625 C 315.425781 75.722656 319.910156 76.859375 323.515625 79.257812 C 325.238281 80.40625 327.082031 82.496094 328.90625 84.359375 C 334.847656 90.449219 339.640625 96.75 341.785156 107.480469 C 342.1875 109.480469 343.199219 112.550781 343.285156 114.386719 C 343.335938 115.554688 342.660156 116.671875 342.683594 117.988281 C 342.707031 119.121094 343.214844 120.421875 343.285156 121.59375 C 343.449219 124.4375 343.105469 127.242188 343.285156 130 C 343.484375 133.011719 343.980469 136.246094 344.183594 140.503906 C 344.339844 143.886719 344.863281 147.304688 345.082031 150.714844 C 345.5625 158.289062 345.382812 166.660156 345.382812 174.429688 C 345.382812 182.402344 345.371094 190.230469 344.183594 196.949219 C 343.238281 202.277344 339.1875 208.394531 336.992188 214.0625 C 334.59375 220.265625 332.90625 226.050781 330.101562 231.175781 C 327.148438 236.582031 324.816406 242.179688 321.71875 247.089844 C 320.222656 249.460938 318.167969 251.378906 316.324219 253.695312 C 314.488281 256 313.035156 258.832031 311.230469 260.597656 C 308.835938 262.953125 304.714844 265.242188 300.75 266.902344 C 296.605469 268.644531 292.226562 269.726562 287.269531 270.207031 C 277.597656 271.144531 267.152344 272.75 257.316406 273.808594 C 246.859375 274.941406 235.230469 274.113281 224.070312 274.113281 C 218.4375 274.109375 212.75 274.113281 207.296875 274.113281 C 201.628906 274.109375 196.148438 273.457031 191.121094 273.808594 C 189.59375 273.914062 188.207031 274.441406 186.628906 274.710938 C 184.96875 274.992188 183.296875 274.496094 181.835938 274.710938 C 181.214844 274.800781 179.773438 275.5 178.839844 275.910156 C 176.027344 277.152344 172.800781 278.148438 169.554688 279.214844 C 163.09375 281.335938 157.695312 283.324219 148.886719 282.515625 C 140.59375 281.757812 134.152344 281.402344 127.320312 278.914062 C 116.347656 274.921875 109.371094 270.765625 102.457031 263.003906 C 101.195312 261.585938 100.378906 260.175781 99.164062 258.5 C 96.921875 255.40625 94.132812 253 92.273438 249.792969 C 88.496094 243.269531 86.15625 235.390625 85.382812 225.472656 C 85.023438 220.835938 85.644531 215.792969 85.085938 210.460938 C 84.882812 208.535156 83.832031 206.675781 83.589844 204.757812 C 83.136719 201.230469 83.347656 197.609375 82.988281 193.949219 C 82.648438 190.480469 82.566406 186.933594 82.386719 183.441406 C 82.210938 179.960938 81.675781 176.449219 81.488281 172.929688 C 80.972656 163.152344 79.992188 152.726562 79.992188 141.40625 C 79.992188 139.96875 79.898438 138.578125 79.992188 137.203125 C 80.070312 136.058594 80.480469 135.082031 80.589844 133.902344 C 81.101562 128.410156 80.21875 122.765625 80.589844 117.691406 C 81.089844 110.90625 83.136719 103.894531 85.085938 97.875 C 85.835938 95.554688 86.125 93.269531 86.882812 91.570312 C 88.886719 87.070312 92.6875 82.761719 95.867188 78.359375 C 97.410156 76.222656 98.789062 73.855469 100.660156 72.054688 C 102.613281 70.171875 104.246094 68.292969 106.050781 66.652344 C 109.835938 63.203125 114.484375 60.730469 119.53125 58.242188 C 124.527344 55.777344 130.035156 53.128906 135.109375 51.941406 C 140.082031 50.769531 145.945312 50.457031 151.582031 50.136719 C 165.105469 49.359375 180.921875 48.488281 193.816406 51.039062 C 196.214844 51.511719 198.78125 51.636719 200.707031 53.136719 C 204.789062 50.660156 209.824219 48.84375 215.382812 48.335938 C 220.6875 47.851562 225.78125 49.269531 230.960938 50.4375 C 240.246094 52.53125 249.539062 54.660156 259.714844 56.738281 C 264.292969 57.679688 270.417969 58.617188 273.195312 60.644531 C 275.550781 62.367188 276.726562 66.566406 277.386719 69.050781 " fill-opacity="1" fill-rule="evenodd"/></g></svg>